<svg xmlns="http://www.w3.org/2000/svg" viewBox="0 0 1080 1720" width="1080" height="1720"><rect x="0" y="0" width="1080" height="1720" rx="0" fill="#F7F4EF"/><rect x="0" y="0" width="1080" height="250" rx="0" fill="#0E1B2A"/><g transform="translate(48.400000000000006,97.1) scale(0.95)"><rect x="48" y="22" width="64" height="8" rx="4" fill="#F7F4EF"/><rect x="76" y="30" width="8" height="40" rx="3" fill="#F7F4EF"/><circle cx="80" cy="71" r="5" fill="#C9A227"/><polygon points="66,74 94,74 97,93 63,93" fill="#C9A227"/><path d="M63 93 C 62 114, 72 136, 80 153 C 88 136, 98 114, 97 93 Z" fill="#F7F4EF"/><polygon points="74,146 86,146 80,157" fill="#C9A227"/></g><path transform="translate(224,100)" d="M5.279999999999999 0.0V-13.244H0.5499999999999999V-15.399999999999999H12.386V-13.244H7.656V0.0ZM24.542 0.0V-15.399999999999999H26.918V-8.799999999999999H33.385999999999996V-15.399999999999999H35.762V0.0H33.385999999999996V-6.643999999999999H26.918V0.0ZM48.974 0.0V-15.399999999999999H58.675999999999995V-13.244H51.349999999999994V-8.822H58.059999999999995V-6.6659999999999995H51.349999999999994V-2.1559999999999997H58.785999999999994V0.0Z" fill="#F7F4EF"/><path transform="translate(222,158)" d="M14.136 0.0V-35.96H1.488V-43.4H34.967999999999996V-35.96H22.32V0.0ZM39.048 0.0V-43.4H57.896Q61.988 -43.4 65.026 -41.974000000000004Q68.064 -40.548 69.738 -37.944Q71.412 -35.339999999999996 71.412 -31.806V-31.062Q71.412 -27.156 69.552 -24.738Q67.69200000000001 -22.32 64.964 -21.204V-20.088Q67.444 -19.964 68.80799999999999 -18.383Q70.172 -16.802 70.172 -14.198V0.0H61.988V-13.02Q61.988 -14.508 61.213 -15.437999999999999Q60.438 -16.368 58.64 -16.368H47.232V0.0ZM47.232 -23.808H57.028000000000006Q59.94200000000001 -23.808 61.58500000000001 -25.389Q63.228 -26.97 63.228 -29.573999999999998V-30.194Q63.228 -32.798 61.616 -34.379000000000005Q60.004000000000005 -35.96 57.028000000000006 -35.96H47.232ZM73.756 0.0 85.164 -43.4H99.424L110.832 0.0H102.4L100.044 -9.548H84.544L82.188 0.0ZM86.46600000000001 -17.112H98.122L92.852 -38.254H91.736ZM113.30000000000001 0.0V-7.192H119.004V-36.208H113.30000000000001V-43.4H131.156Q139.898 -43.4 144.45499999999998 -38.967Q149.012 -34.534 149.012 -25.792V-17.608Q149.012 -8.866 144.45499999999998 -4.433Q139.898 0.0 131.156 0.0ZM127.188 -7.4399999999999995H131.28Q136.24 -7.4399999999999995 138.534 -10.044Q140.828 -12.648 140.828 -17.36V-26.04Q140.828 -30.814 138.534 -33.387Q136.24 -35.96 131.28 -35.96H127.188ZM154.33200000000002 0.0V-43.4H182.232V-35.96H162.51600000000002V-25.605999999999998H180.496V-18.166H162.51600000000002V-7.4399999999999995H182.604V0.0ZM202.24600000000004 0.868Q197.22400000000002 0.868 193.38000000000002 -0.9299999999999999Q189.53600000000003 -2.7279999999999998 187.36600000000004 -6.076Q185.19600000000003 -9.424 185.19600000000003 -14.136V-15.872H193.25600000000003V-14.136Q193.25600000000003 -10.23 195.67400000000004 -8.277000000000001Q198.092 -6.324 202.24600000000004 -6.324Q206.46200000000002 -6.324 208.53900000000002 -7.998Q210.616 -9.672 210.616 -12.276Q210.616 -14.074 209.59300000000002 -15.190000000000001Q208.57000000000002 -16.306 206.61700000000002 -17.019Q204.66400000000002 -17.732 201.87400000000002 -18.352L200.44800000000004 -18.662Q195.98400000000004 -19.654 192.79100000000003 -21.173000000000002Q189.598 -22.692 187.89300000000003 -25.172Q186.18800000000002 -27.652 186.18800000000002 -31.62Q186.18800000000002 -35.588 188.079 -38.409Q189.97000000000003 -41.23 193.41100000000003 -42.748999999999995Q196.85200000000003 -44.268 201.502 -44.268Q206.15200000000002 -44.268 209.77900000000002 -42.687Q213.40600000000003 -41.106 215.48300000000003 -37.975Q217.56000000000003 -34.844 217.56000000000003 -30.132V-28.272H209.50000000000003V-30.132Q209.50000000000003 -32.612 208.53900000000004 -34.131Q207.57800000000003 -35.65 205.78000000000003 -36.363Q203.98200000000003 -37.076 201.502 -37.076Q197.782 -37.076 196.01500000000001 -35.681Q194.24800000000002 -34.286 194.24800000000002 -31.868Q194.24800000000002 -30.256 195.08500000000004 -29.14Q195.92200000000003 -28.024 197.596 -27.28Q199.27 -26.536 201.87400000000002 -25.978L203.3 -25.668Q207.95000000000002 -24.676 211.39100000000002 -23.125999999999998Q214.83200000000002 -21.576 216.75400000000002 -19.034Q218.67600000000002 -16.492 218.67600000000002 -12.524Q218.67600000000002 -8.556 216.661 -5.5489999999999995Q214.64600000000002 -2.542 210.95700000000002 -0.837Q207.26800000000003 0.868 202.24600000000004 0.868Z" fill="#F7F4EF"/><path transform="translate(222,158)" d="M237.50000000000003 0.0V-43.4H245.68400000000003V-7.4399999999999995H265.524V0.0ZM266.628 0.0 278.036 -43.4H292.296L303.704 0.0H295.272L292.916 -9.548H277.416L275.06 0.0ZM279.338 -17.112H290.994L285.724 -38.254H284.608ZM306.17199999999997 0.0V-7.192H311.876V-36.208H306.17199999999997V-43.4H328.492Q332.46 -43.4 335.405 -42.067Q338.35 -40.734 339.993 -38.285Q341.63599999999997 -35.836 341.63599999999997 -32.426V-31.806Q341.63599999999997 -28.83 340.52 -26.939Q339.404 -25.048 337.885 -24.025Q336.366 -23.002 335.002 -22.568V-21.451999999999998Q336.366 -21.08 337.97799999999995 -20.057Q339.59 -19.034 340.73699999999997 -17.112Q341.884 -15.19 341.884 -12.09V-11.47Q341.884 -7.874 340.21000000000004 -5.301Q338.536 -2.7279999999999998 335.591 -1.3639999999999999Q332.646 0.0 328.74 0.0ZM320.06 -7.4399999999999995H327.748Q330.414 -7.4399999999999995 332.057 -8.742Q333.7 -10.044 333.7 -12.462V-13.082Q333.7 -15.5 332.08799999999997 -16.802Q330.476 -18.104 327.748 -18.104H320.06ZM320.06 -25.544H327.62399999999997Q330.166 -25.544 331.80899999999997 -26.846Q333.452 -28.148 333.452 -30.442V-31.062Q333.452 -33.418 331.84000000000003 -34.689Q330.228 -35.96 327.62399999999997 -35.96H320.06Z" fill="#C9A227"/><text x="1008" y="70" font-family="Inter" font-size="13" font-weight="600" letter-spacing="3" fill="#8A94A0" text-anchor="end">BRAND GUIDELINES</text><text x="1008" y="92" font-family="Inter" font-size="13" font-weight="400" letter-spacing="1" fill="#8A94A0" text-anchor="end">v1.0 · 2026</text><text x="72" y="328" font-family="Inter" font-size="13" font-weight="700" letter-spacing="3" fill="#C9A227" text-anchor="start">THE MARK</text><rect x="72" y="342" width="936" height="1" rx="0" fill="#E3DDD1"/><g transform="translate(82.0,372.0) scale(1.0)"><rect x="48" y="22" width="64" height="8" rx="4" fill="#0E1B2A"/><rect x="76" y="30" width="8" height="40" rx="3" fill="#0E1B2A"/><circle cx="80" cy="71" r="5" fill="#C9A227"/><polygon points="66,74 94,74 97,93 63,93" fill="#C9A227"/><path d="M63 93 C 62 114, 72 136, 80 153 C 88 136, 98 114, 97 93 Z" fill="#0E1B2A"/><polygon points="74,146 86,146 80,157" fill="#C9A227"/></g><path d="M309.752 422.0V402.28H302.816V398.2H321.176V402.28H314.24V422.0ZM324.372 422.0V405.136H328.588V407.04H329.20000000000005Q329.574 406.02 330.44100000000003 405.544Q331.308 405.068 332.464 405.068H334.504V408.876H332.396Q330.764 408.876 329.71000000000004 409.743Q328.656 410.61 328.656 412.412V422.0ZM344.262 422.272Q342.29 422.272 340.81100000000004 421.371Q339.332 420.47 338.516 418.872Q337.70000000000005 417.274 337.70000000000005 415.2V405.136H341.98400000000004V414.86Q341.98400000000004 416.764 342.91900000000004 417.716Q343.85400000000004 418.668 345.588 418.668Q347.56 418.668 348.648 417.35900000000004Q349.736 416.05 349.736 413.704V405.136H354.02000000000004V422.0H349.80400000000003V419.79H349.192Q348.784 420.64 347.66200000000003 421.456Q346.54 422.272 344.262 422.272ZM366.46400000000006 422.476Q363.94800000000004 422.476 362.02700000000004 421.405Q360.10600000000005 420.334 359.0350000000001 418.379Q357.96400000000006 416.424 357.96400000000006 413.772V413.364Q357.96400000000006 410.712 359.01800000000003 408.757Q360.07200000000006 406.802 361.97600000000006 405.731Q363.88000000000005 404.66 366.396 404.66Q368.87800000000004 404.66 370.71400000000006 405.765Q372.55 406.87 373.57000000000005 408.825Q374.59000000000003 410.78 374.59000000000003 413.364V414.826H362.31600000000003Q362.384 416.56 363.60800000000006 417.648Q364.83200000000005 418.736 366.6 418.736Q368.40200000000004 418.736 369.25200000000007 417.954Q370.10200000000003 417.172 370.54400000000004 416.22L374.04600000000005 418.056Q373.57000000000005 418.94 372.66900000000004 419.977Q371.76800000000003 421.014 370.27200000000005 421.745Q368.776 422.476 366.46400000000006 422.476ZM362.35 411.63H370.23800000000006Q370.10200000000003 410.168 369.06500000000005 409.284Q368.028 408.4 366.362 408.4Q364.62800000000004 408.4 363.60800000000006 409.284Q362.588 410.168 362.35 411.63ZM381.11800000000005 422.476Q379.72400000000005 422.476 378.78900000000004 421.575Q377.85400000000004 420.674 377.85400000000004 419.246Q377.85400000000004 417.818 378.78900000000004 416.91700000000003Q379.72400000000005 416.016 381.11800000000005 416.016Q382.478 416.016 383.396 416.91700000000003Q384.314 417.818 384.314 419.246Q384.314 420.674 383.396 421.575Q382.478 422.476 381.11800000000005 422.476ZM397.0300000000001 422.0V398.2H401.5180000000001V417.92H412.3980000000001V422.0ZM423.2780000000001 422.476Q420.76200000000006 422.476 418.84100000000007 421.405Q416.9200000000001 420.334 415.84900000000005 418.379Q414.7780000000001 416.424 414.7780000000001 413.772V413.364Q414.7780000000001 410.712 415.8320000000001 408.757Q416.8860000000001 406.802 418.7900000000001 405.731Q420.6940000000001 404.66 423.21000000000004 404.66Q425.69200000000006 404.66 427.528 405.765Q429.36400000000003 406.87 430.384 408.825Q431.40400000000005 410.78 431.40400000000005 413.364V414.826H419.13000000000005Q419.19800000000004 416.56 420.422 417.648Q421.6460000000001 418.736 423.41400000000004 418.736Q425.21600000000007 418.736 426.06600000000003 417.954Q426.91600000000005 417.172 427.35800000000006 416.22L430.86000000000007 418.056Q430.38400000000007 418.94 429.48300000000006 419.977Q428.58200000000005 421.014 427.086 421.745Q425.59000000000003 422.476 423.2780000000001 422.476ZM419.16400000000004 411.63H427.0520000000001Q426.91600000000005 410.168 425.879 409.284Q424.84200000000004 408.4 423.17600000000004 408.4Q421.44200000000006 408.4 420.422 409.284Q419.40200000000004 410.168 419.16400000000004 411.63ZM438.74800000000005 422.0 433.37600000000003 405.136H437.9320000000001L441.84200000000004 418.872H442.45400000000006L446.36400000000003 405.136H450.9200000000001L445.54800000000006 422.0ZM461.5280000000001 422.476Q459.01200000000006 422.476 457.09100000000007 421.405Q455.1700000000001 420.334 454.09900000000005 418.379Q453.0280000000001 416.424 453.0280000000001 413.772V413.364Q453.0280000000001 410.712 454.0820000000001 408.757Q455.1360000000001 406.802 457.0400000000001 405.731Q458.9440000000001 404.66 461.46000000000004 404.66Q463.94200000000006 404.66 465.778 405.765Q467.61400000000003 406.87 468.634 408.825Q469.65400000000005 410.78 469.65400000000005 413.364V414.826H457.38000000000005Q457.44800000000004 416.56 458.672 417.648Q459.8960000000001 418.736 461.66400000000004 418.736Q463.46600000000007 418.736 464.31600000000003 417.954Q465.16600000000005 417.172 465.60800000000006 416.22L469.11000000000007 418.056Q468.63400000000007 418.94 467.73300000000006 419.977Q466.83200000000005 421.014 465.336 421.745Q463.84000000000003 422.476 461.5280000000001 422.476ZM457.41400000000004 411.63H465.3020000000001Q465.16600000000005 410.168 464.129 409.284Q463.09200000000004 408.4 461.42600000000004 408.4Q459.69200000000006 408.4 458.672 409.284Q457.65200000000004 410.168 457.41400000000004 411.63ZM473.46200000000005 422.0V398.2H477.74600000000004V422.0ZM485.22600000000006 422.476Q483.83200000000005 422.476 482.89700000000005 421.575Q481.96200000000005 420.674 481.96200000000005 419.246Q481.96200000000005 417.818 482.89700000000005 416.91700000000003Q483.83200000000005 416.016 485.22600000000006 416.016Q486.586 416.016 487.504 416.91700000000003Q488.422 417.818 488.422 419.246Q488.422 420.674 487.504 421.575Q486.586 422.476 485.22600000000006 422.476ZM501.1380000000001 422.0V398.2H510.93000000000006Q513.1740000000001 398.2 514.8910000000001 399.101Q516.6080000000001 400.002 517.577 401.634Q518.546 403.266 518.546 405.51V405.986Q518.546 408.196 517.5430000000001 409.845Q516.5400000000001 411.494 514.8230000000001 412.395Q513.1060000000001 413.296 510.93000000000006 413.296H505.6260000000001V422.0ZM505.6260000000001 409.216H510.48800000000006Q512.086 409.216 513.0720000000001 408.332Q514.0580000000001 407.448 514.0580000000001 405.918V405.578Q514.0580000000001 404.048 513.0720000000001 403.164Q512.086 402.28 510.48800000000006 402.28H505.6260000000001ZM521.8100000000001 422.0V405.136H526.0260000000001V407.04H526.638Q527.0120000000001 406.02 527.8790000000001 405.544Q528.7460000000001 405.068 529.902 405.068H531.942V408.876H529.8340000000001Q528.2020000000001 408.876 527.1480000000001 409.743Q526.094 410.61 526.094 412.412V422.0ZM542.9580000000001 422.476Q540.4420000000001 422.476 538.5210000000002 421.405Q536.6000000000001 420.334 535.5290000000001 418.379Q534.4580000000001 416.424 534.4580000000001 413.772V413.364Q534.4580000000001 410.712 535.5120000000002 408.757Q536.5660000000001 406.802 538.4700000000001 405.731Q540.3740000000001 404.66 542.8900000000001 404.66Q545.3720000000001 404.66 547.2080000000001 405.765Q549.0440000000001 406.87 550.0640000000001 408.825Q551.0840000000002 410.78 551.0840000000002 413.364V414.826H538.8100000000002Q538.8780000000002 416.56 540.1020000000001 417.648Q541.3260000000001 418.736 543.0940000000002 418.736Q544.8960000000001 418.736 545.7460000000001 417.954Q546.5960000000001 417.172 547.0380000000001 416.22L550.5400000000001 418.056Q550.0640000000001 418.94 549.1630000000001 419.977Q548.2620000000002 421.014 546.7660000000001 421.745Q545.2700000000001 422.476 542.9580000000001 422.476ZM538.8440000000002 411.63H546.7320000000001Q546.5960000000001 410.168 545.5590000000002 409.284Q544.5220000000002 408.4 542.8560000000001 408.4Q541.1220000000001 408.4 540.1020000000001 409.284Q539.0820000000001 410.168 538.8440000000002 411.63ZM562.8140000000002 422.476Q560.3660000000002 422.476 558.3770000000002 421.456Q556.3880000000001 420.436 555.2320000000002 418.498Q554.0760000000001 416.56 554.0760000000001 413.806V413.33Q554.0760000000001 410.576 555.2320000000002 408.63800000000003Q556.3880000000001 406.7 558.3770000000002 405.68Q560.3660000000002 404.66 562.8140000000002 404.66Q565.2280000000002 404.66 566.9620000000002 405.51Q568.6960000000001 406.36 569.7670000000002 407.839Q570.8380000000002 409.318 571.1780000000002 411.188L567.0300000000002 412.072Q566.8940000000001 411.052 566.4180000000001 410.236Q565.9420000000001 409.42 565.0750000000002 408.944Q564.2080000000002 408.468 562.9160000000002 408.468Q561.6240000000001 408.468 560.5870000000002 409.029Q559.5500000000002 409.59 558.9550000000002 410.695Q558.3600000000001 411.8 558.3600000000001 413.398V413.738Q558.3600000000001 415.336 558.9550000000002 416.44100000000003Q559.5500000000002 417.546 560.5870000000002 418.10699999999997Q561.6240000000001 418.668 562.9160000000002 418.668Q564.8540000000002 418.668 565.8570000000002 417.66499999999996Q566.8600000000001 416.662 567.1320000000002 415.03L571.2800000000002 416.016Q570.8380000000002 417.818 569.7670000000002 419.297Q568.6960000000001 420.776 566.9620000000002 421.626Q565.2280000000002 422.476 562.8140000000002 422.476ZM574.8160000000001 422.0V405.136H579.1000000000001V422.0ZM576.9580000000002 403.164Q575.8020000000001 403.164 575.0030000000002 402.416Q574.2040000000002 401.668 574.2040000000002 400.444Q574.2040000000002 399.22 575.0030000000002 398.472Q575.8020000000001 397.724 576.9580000000002 397.724Q578.1480000000001 397.724 578.9300000000002 398.472Q579.7120000000002 399.22 579.7120000000002 400.444Q579.7120000000002 401.668 578.9300000000002 402.416Q578.1480000000001 403.164 576.9580000000002 403.164ZM590.8640000000001 422.476Q587.5660000000001 422.476 585.4580000000001 421.048Q583.3500000000001 419.62 582.9080000000001 416.968L586.8520000000001 415.948Q587.0900000000001 417.138 587.6510000000001 417.818Q588.2120000000001 418.498 589.0450000000001 418.78700000000003Q589.8780000000002 419.076 590.8640000000001 419.076Q592.3600000000001 419.076 593.0740000000001 418.549Q593.7880000000001 418.022 593.7880000000001 417.24Q593.7880000000001 416.458 593.1080000000002 416.033Q592.4280000000001 415.608 590.9320000000001 415.336L589.9800000000001 415.166Q588.2120000000001 414.826 586.7500000000001 414.231Q585.2880000000001 413.636 584.4040000000001 412.582Q583.5200000000001 411.528 583.5200000000001 409.862Q583.5200000000001 407.346 585.3560000000001 406.00300000000004Q587.1920000000001 404.66 590.1840000000001 404.66Q593.0060000000001 404.66 594.8760000000001 405.918Q596.7460000000001 407.176 597.3240000000002 409.216L593.3460000000001 410.44Q593.0740000000002 409.148 592.2410000000002 408.60400000000004Q591.4080000000001 408.06 590.1840000000001 408.06Q588.9600000000002 408.06 588.3140000000001 408.485Q587.6680000000001 408.91 587.6680000000001 409.658Q587.6680000000001 410.474 588.3480000000002 410.865Q589.0280000000001 411.256 590.1840000000001 411.46L591.1360000000001 411.63Q593.0400000000001 411.97 594.5870000000001 412.531Q596.1340000000001 413.092 597.0350000000001 414.129Q597.9360000000001 415.166 597.9360000000001 416.934Q597.9360000000001 419.586 596.0150000000001 421.031Q594.0940000000002 422.476 590.8640000000001 422.476ZM609.3600000000001 422.476Q606.8440000000002 422.476 604.9230000000002 421.405Q603.0020000000002 420.334 601.9310000000002 418.379Q600.8600000000001 416.424 600.8600000000001 413.772V413.364Q600.8600000000001 410.712 601.9140000000002 408.757Q602.9680000000002 406.802 604.8720000000002 405.731Q606.7760000000002 404.66 609.2920000000001 404.66Q611.7740000000001 404.66 613.6100000000001 405.765Q615.4460000000001 406.87 616.4660000000001 408.825Q617.4860000000002 410.78 617.4860000000002 413.364V414.826H605.2120000000002Q605.2800000000002 416.56 606.5040000000001 417.648Q607.7280000000002 418.736 609.4960000000002 418.736Q611.2980000000001 418.736 612.1480000000001 417.954Q612.9980000000002 417.172 613.4400000000002 416.22L616.9420000000001 418.056Q616.4660000000001 418.94 615.5650000000002 419.977Q614.6640000000002 421.014 613.1680000000001 421.745Q611.6720000000001 422.476 609.3600000000001 422.476ZM605.2460000000002 411.63H613.1340000000001Q612.9980000000002 410.168 611.9610000000002 409.284Q610.9240000000002 408.4 609.2580000000002 408.4Q607.5240000000001 408.4 606.5040000000001 409.284Q605.4840000000002 410.168 605.2460000000002 411.63ZM624.0140000000002 422.476Q622.6200000000002 422.476 621.6850000000002 421.575Q620.7500000000002 420.674 620.7500000000002 419.246Q620.7500000000002 417.818 621.6850000000002 416.91700000000003Q622.6200000000002 416.016 624.0140000000002 416.016Q625.3740000000003 416.016 626.2920000000003 416.91700000000003Q627.2100000000003 417.818 627.2100000000003 419.246Q627.2100000000003 420.674 626.2920000000003 421.575Q625.3740000000003 422.476 624.0140000000002 422.476Z" fill="#0E1B2A"/><text x="304" y="464" font-family="Inter" font-size="17" font-weight="400" letter-spacing="0" fill="#3A434E" text-anchor="start">A plumb-bob is the oldest tool for getting something exactly</text><text x="304" y="494" font-family="Inter" font-size="17" font-weight="400" letter-spacing="0" fill="#3A434E" text-anchor="start">right — and a quiet nod to water. Our mark says it plainly:</text><text x="304" y="524" font-family="Inter" font-size="17" font-weight="400" letter-spacing="0" fill="#3A434E" text-anchor="start">websites that are exact, dependable and beautifully made.</text><text x="304" y="554" font-family="Inter" font-size="17" font-weight="400" letter-spacing="0" fill="#3A434E" text-anchor="start">No clichés. Just craft, measured to the millimetre.</text><text x="72" y="600" font-family="Inter" font-size="13" font-weight="700" letter-spacing="3" fill="#C9A227" text-anchor="start">LOGO SYSTEM</text><rect x="72" y="614" width="936" height="1" rx="0" fill="#E3DDD1"/><rect x="72.0" y="640" width="292.0" height="170" rx="10" fill="#F7F4EF" stroke="#E3DDD1" stroke-width="1"/><g transform="translate(97.00000000000001,686.3829787234042) scale(0.5148936170212766)"><svg viewBox="0 0 470 150" width="470" height="150"><g transform="translate(-29.36,-12.04) scale(0.82)"><rect x="48" y="22" width="64" height="8" rx="4" fill="#0E1B2A"/><rect x="76" y="30" width="8" height="40" rx="3" fill="#0E1B2A"/><circle cx="80" cy="71" r="5" fill="#C9A227"/><polygon points="66,74 94,74 97,93 63,93" fill="#C9A227"/><path d="M63 93 C 62 114, 72 136, 80 153 C 88 136, 98 114, 97 93 Z" fill="#0E1B2A"/><polygon points="74,146 86,146 80,157" fill="#C9A227"/></g><path transform="translate(86.47999999999999,52)" d="M5.279999999999999 0.0V-13.244H0.5499999999999999V-15.399999999999999H12.386V-13.244H7.656V0.0ZM24.542 0.0V-15.399999999999999H26.918V-8.799999999999999H33.385999999999996V-15.399999999999999H35.762V0.0H33.385999999999996V-6.643999999999999H26.918V0.0ZM48.974 0.0V-15.399999999999999H58.675999999999995V-13.244H51.349999999999994V-8.822H58.059999999999995V-6.6659999999999995H51.349999999999994V-2.1559999999999997H58.785999999999994V0.0Z" fill="#0E1B2A"/><path transform="translate(84.47999999999999,110)" d="M14.136 0.0V-35.96H1.488V-43.4H34.967999999999996V-35.96H22.32V0.0ZM39.048 0.0V-43.4H57.896Q61.988 -43.4 65.026 -41.974000000000004Q68.064 -40.548 69.738 -37.944Q71.412 -35.339999999999996 71.412 -31.806V-31.062Q71.412 -27.156 69.552 -24.738Q67.69200000000001 -22.32 64.964 -21.204V-20.088Q67.444 -19.964 68.80799999999999 -18.383Q70.172 -16.802 70.172 -14.198V0.0H61.988V-13.02Q61.988 -14.508 61.213 -15.437999999999999Q60.438 -16.368 58.64 -16.368H47.232V0.0ZM47.232 -23.808H57.028000000000006Q59.94200000000001 -23.808 61.58500000000001 -25.389Q63.228 -26.97 63.228 -29.573999999999998V-30.194Q63.228 -32.798 61.616 -34.379000000000005Q60.004000000000005 -35.96 57.028000000000006 -35.96H47.232ZM73.756 0.0 85.164 -43.4H99.424L110.832 0.0H102.4L100.044 -9.548H84.544L82.188 0.0ZM86.46600000000001 -17.112H98.122L92.852 -38.254H91.736ZM113.30000000000001 0.0V-7.192H119.004V-36.208H113.30000000000001V-43.4H131.156Q139.898 -43.4 144.45499999999998 -38.967Q149.012 -34.534 149.012 -25.792V-17.608Q149.012 -8.866 144.45499999999998 -4.433Q139.898 0.0 131.156 0.0ZM127.188 -7.4399999999999995H131.28Q136.24 -7.4399999999999995 138.534 -10.044Q140.828 -12.648 140.828 -17.36V-26.04Q140.828 -30.814 138.534 -33.387Q136.24 -35.96 131.28 -35.96H127.188ZM154.33200000000002 0.0V-43.4H182.232V-35.96H162.51600000000002V-25.605999999999998H180.496V-18.166H162.51600000000002V-7.4399999999999995H182.604V0.0ZM202.24600000000004 0.868Q197.22400000000002 0.868 193.38000000000002 -0.9299999999999999Q189.53600000000003 -2.7279999999999998 187.36600000000004 -6.076Q185.19600000000003 -9.424 185.19600000000003 -14.136V-15.872H193.25600000000003V-14.136Q193.25600000000003 -10.23 195.67400000000004 -8.277000000000001Q198.092 -6.324 202.24600000000004 -6.324Q206.46200000000002 -6.324 208.53900000000002 -7.998Q210.616 -9.672 210.616 -12.276Q210.616 -14.074 209.59300000000002 -15.190000000000001Q208.57000000000002 -16.306 206.61700000000002 -17.019Q204.66400000000002 -17.732 201.87400000000002 -18.352L200.44800000000004 -18.662Q195.98400000000004 -19.654 192.79100000000003 -21.173000000000002Q189.598 -22.692 187.89300000000003 -25.172Q186.18800000000002 -27.652 186.18800000000002 -31.62Q186.18800000000002 -35.588 188.079 -38.409Q189.97000000000003 -41.23 193.41100000000003 -42.748999999999995Q196.85200000000003 -44.268 201.502 -44.268Q206.15200000000002 -44.268 209.77900000000002 -42.687Q213.40600000000003 -41.106 215.48300000000003 -37.975Q217.56000000000003 -34.844 217.56000000000003 -30.132V-28.272H209.50000000000003V-30.132Q209.50000000000003 -32.612 208.53900000000004 -34.131Q207.57800000000003 -35.65 205.78000000000003 -36.363Q203.98200000000003 -37.076 201.502 -37.076Q197.782 -37.076 196.01500000000001 -35.681Q194.24800000000002 -34.286 194.24800000000002 -31.868Q194.24800000000002 -30.256 195.08500000000004 -29.14Q195.92200000000003 -28.024 197.596 -27.28Q199.27 -26.536 201.87400000000002 -25.978L203.3 -25.668Q207.95000000000002 -24.676 211.39100000000002 -23.125999999999998Q214.83200000000002 -21.576 216.75400000000002 -19.034Q218.67600000000002 -16.492 218.67600000000002 -12.524Q218.67600000000002 -8.556 216.661 -5.5489999999999995Q214.64600000000002 -2.542 210.95700000000002 -0.837Q207.26800000000003 0.868 202.24600000000004 0.868Z" fill="#0E1B2A"/><path transform="translate(84.47999999999999,110)" d="M237.50000000000003 0.0V-43.4H245.68400000000003V-7.4399999999999995H265.524V0.0ZM266.628 0.0 278.036 -43.4H292.296L303.704 0.0H295.272L292.916 -9.548H277.416L275.06 0.0ZM279.338 -17.112H290.994L285.724 -38.254H284.608ZM306.17199999999997 0.0V-7.192H311.876V-36.208H306.17199999999997V-43.4H328.492Q332.46 -43.4 335.405 -42.067Q338.35 -40.734 339.993 -38.285Q341.63599999999997 -35.836 341.63599999999997 -32.426V-31.806Q341.63599999999997 -28.83 340.52 -26.939Q339.404 -25.048 337.885 -24.025Q336.366 -23.002 335.002 -22.568V-21.451999999999998Q336.366 -21.08 337.97799999999995 -20.057Q339.59 -19.034 340.73699999999997 -17.112Q341.884 -15.19 341.884 -12.09V-11.47Q341.884 -7.874 340.21000000000004 -5.301Q338.536 -2.7279999999999998 335.591 -1.3639999999999999Q332.646 0.0 328.74 0.0ZM320.06 -7.4399999999999995H327.748Q330.414 -7.4399999999999995 332.057 -8.742Q333.7 -10.044 333.7 -12.462V-13.082Q333.7 -15.5 332.08799999999997 -16.802Q330.476 -18.104 327.748 -18.104H320.06ZM320.06 -25.544H327.62399999999997Q330.166 -25.544 331.80899999999997 -26.846Q333.452 -28.148 333.452 -30.442V-31.062Q333.452 -33.418 331.84000000000003 -34.689Q330.228 -35.96 327.62399999999997 -35.96H320.06Z" fill="#C9A227"/></svg></g><text x="72.0" y="836" font-family="Inter" font-size="13" font-weight="600" letter-spacing="1" fill="#8A94A0" text-anchor="start">Primary lockup</text><rect x="394.0" y="640" width="292.0" height="170" rx="10" fill="#0E1B2A"/><g transform="translate(419.0,686.3829787234042) scale(0.5148936170212766)"><svg viewBox="0 0 470 150" width="470" height="150"><rect width="470" height="150" fill="#0E1B2A"/><g transform="translate(-29.36,-12.04) scale(0.82)"><rect x="48" y="22" width="64" height="8" rx="4" fill="#F7F4EF"/><rect x="76" y="30" width="8" height="40" rx="3" fill="#F7F4EF"/><circle cx="80" cy="71" r="5" fill="#C9A227"/><polygon points="66,74 94,74 97,93 63,93" fill="#C9A227"/><path d="M63 93 C 62 114, 72 136, 80 153 C 88 136, 98 114, 97 93 Z" fill="#F7F4EF"/><polygon points="74,146 86,146 80,157" fill="#C9A227"/></g><path transform="translate(86.47999999999999,52)" d="M5.279999999999999 0.0V-13.244H0.5499999999999999V-15.399999999999999H12.386V-13.244H7.656V0.0ZM24.542 0.0V-15.399999999999999H26.918V-8.799999999999999H33.385999999999996V-15.399999999999999H35.762V0.0H33.385999999999996V-6.643999999999999H26.918V0.0ZM48.974 0.0V-15.399999999999999H58.675999999999995V-13.244H51.349999999999994V-8.822H58.059999999999995V-6.6659999999999995H51.349999999999994V-2.1559999999999997H58.785999999999994V0.0Z" fill="#F7F4EF"/><path transform="translate(84.47999999999999,110)" d="M14.136 0.0V-35.96H1.488V-43.4H34.967999999999996V-35.96H22.32V0.0ZM39.048 0.0V-43.4H57.896Q61.988 -43.4 65.026 -41.974000000000004Q68.064 -40.548 69.738 -37.944Q71.412 -35.339999999999996 71.412 -31.806V-31.062Q71.412 -27.156 69.552 -24.738Q67.69200000000001 -22.32 64.964 -21.204V-20.088Q67.444 -19.964 68.80799999999999 -18.383Q70.172 -16.802 70.172 -14.198V0.0H61.988V-13.02Q61.988 -14.508 61.213 -15.437999999999999Q60.438 -16.368 58.64 -16.368H47.232V0.0ZM47.232 -23.808H57.028000000000006Q59.94200000000001 -23.808 61.58500000000001 -25.389Q63.228 -26.97 63.228 -29.573999999999998V-30.194Q63.228 -32.798 61.616 -34.379000000000005Q60.004000000000005 -35.96 57.028000000000006 -35.96H47.232ZM73.756 0.0 85.164 -43.4H99.424L110.832 0.0H102.4L100.044 -9.548H84.544L82.188 0.0ZM86.46600000000001 -17.112H98.122L92.852 -38.254H91.736ZM113.30000000000001 0.0V-7.192H119.004V-36.208H113.30000000000001V-43.4H131.156Q139.898 -43.4 144.45499999999998 -38.967Q149.012 -34.534 149.012 -25.792V-17.608Q149.012 -8.866 144.45499999999998 -4.433Q139.898 0.0 131.156 0.0ZM127.188 -7.4399999999999995H131.28Q136.24 -7.4399999999999995 138.534 -10.044Q140.828 -12.648 140.828 -17.36V-26.04Q140.828 -30.814 138.534 -33.387Q136.24 -35.96 131.28 -35.96H127.188ZM154.33200000000002 0.0V-43.4H182.232V-35.96H162.51600000000002V-25.605999999999998H180.496V-18.166H162.51600000000002V-7.4399999999999995H182.604V0.0ZM202.24600000000004 0.868Q197.22400000000002 0.868 193.38000000000002 -0.9299999999999999Q189.53600000000003 -2.7279999999999998 187.36600000000004 -6.076Q185.19600000000003 -9.424 185.19600000000003 -14.136V-15.872H193.25600000000003V-14.136Q193.25600000000003 -10.23 195.67400000000004 -8.277000000000001Q198.092 -6.324 202.24600000000004 -6.324Q206.46200000000002 -6.324 208.53900000000002 -7.998Q210.616 -9.672 210.616 -12.276Q210.616 -14.074 209.59300000000002 -15.190000000000001Q208.57000000000002 -16.306 206.61700000000002 -17.019Q204.66400000000002 -17.732 201.87400000000002 -18.352L200.44800000000004 -18.662Q195.98400000000004 -19.654 192.79100000000003 -21.173000000000002Q189.598 -22.692 187.89300000000003 -25.172Q186.18800000000002 -27.652 186.18800000000002 -31.62Q186.18800000000002 -35.588 188.079 -38.409Q189.97000000000003 -41.23 193.41100000000003 -42.748999999999995Q196.85200000000003 -44.268 201.502 -44.268Q206.15200000000002 -44.268 209.77900000000002 -42.687Q213.40600000000003 -41.106 215.48300000000003 -37.975Q217.56000000000003 -34.844 217.56000000000003 -30.132V-28.272H209.50000000000003V-30.132Q209.50000000000003 -32.612 208.53900000000004 -34.131Q207.57800000000003 -35.65 205.78000000000003 -36.363Q203.98200000000003 -37.076 201.502 -37.076Q197.782 -37.076 196.01500000000001 -35.681Q194.24800000000002 -34.286 194.24800000000002 -31.868Q194.24800000000002 -30.256 195.08500000000004 -29.14Q195.92200000000003 -28.024 197.596 -27.28Q199.27 -26.536 201.87400000000002 -25.978L203.3 -25.668Q207.95000000000002 -24.676 211.39100000000002 -23.125999999999998Q214.83200000000002 -21.576 216.75400000000002 -19.034Q218.67600000000002 -16.492 218.67600000000002 -12.524Q218.67600000000002 -8.556 216.661 -5.5489999999999995Q214.64600000000002 -2.542 210.95700000000002 -0.837Q207.26800000000003 0.868 202.24600000000004 0.868Z" fill="#F7F4EF"/><path transform="translate(84.47999999999999,110)" d="M237.50000000000003 0.0V-43.4H245.68400000000003V-7.4399999999999995H265.524V0.0ZM266.628 0.0 278.036 -43.4H292.296L303.704 0.0H295.272L292.916 -9.548H277.416L275.06 0.0ZM279.338 -17.112H290.994L285.724 -38.254H284.608ZM306.17199999999997 0.0V-7.192H311.876V-36.208H306.17199999999997V-43.4H328.492Q332.46 -43.4 335.405 -42.067Q338.35 -40.734 339.993 -38.285Q341.63599999999997 -35.836 341.63599999999997 -32.426V-31.806Q341.63599999999997 -28.83 340.52 -26.939Q339.404 -25.048 337.885 -24.025Q336.366 -23.002 335.002 -22.568V-21.451999999999998Q336.366 -21.08 337.97799999999995 -20.057Q339.59 -19.034 340.73699999999997 -17.112Q341.884 -15.19 341.884 -12.09V-11.47Q341.884 -7.874 340.21000000000004 -5.301Q338.536 -2.7279999999999998 335.591 -1.3639999999999999Q332.646 0.0 328.74 0.0ZM320.06 -7.4399999999999995H327.748Q330.414 -7.4399999999999995 332.057 -8.742Q333.7 -10.044 333.7 -12.462V-13.082Q333.7 -15.5 332.08799999999997 -16.802Q330.476 -18.104 327.748 -18.104H320.06ZM320.06 -25.544H327.62399999999997Q330.166 -25.544 331.80899999999997 -26.846Q333.452 -28.148 333.452 -30.442V-31.062Q333.452 -33.418 331.84000000000003 -34.689Q330.228 -35.96 327.62399999999997 -35.96H320.06Z" fill="#C9A227"/></svg></g><text x="394.0" y="836" font-family="Inter" font-size="13" font-weight="600" letter-spacing="1" fill="#8A94A0" text-anchor="start">Reversed</text><rect x="716.0" y="640" width="292.0" height="170" rx="10" fill="#F7F4EF" stroke="#E3DDD1" stroke-width="1"/><g transform="translate(763.3913043478261,662.0) scale(0.5478260869565217)"><svg viewBox="0 0 360 230" width="360" height="230"><g transform="translate(104.0,-12.899999999999999) scale(0.95)"><rect x="48" y="22" width="64" height="8" rx="4" fill="#0E1B2A"/><rect x="76" y="30" width="8" height="40" rx="3" fill="#0E1B2A"/><circle cx="80" cy="71" r="5" fill="#C9A227"/><polygon points="66,74 94,74 97,93 63,93" fill="#C9A227"/><path d="M63 93 C 62 114, 72 136, 80 153 C 88 136, 98 114, 97 93 Z" fill="#0E1B2A"/><polygon points="74,146 86,146 80,157" fill="#C9A227"/></g><g transform="translate(73.67,190) scale(0.62)"><path transform="translate(2,-58)" d="M5.279999999999999 0.0V-13.244H0.5499999999999999V-15.399999999999999H12.386V-13.244H7.656V0.0ZM24.542 0.0V-15.399999999999999H26.918V-8.799999999999999H33.385999999999996V-15.399999999999999H35.762V0.0H33.385999999999996V-6.643999999999999H26.918V0.0ZM48.974 0.0V-15.399999999999999H58.675999999999995V-13.244H51.349999999999994V-8.822H58.059999999999995V-6.6659999999999995H51.349999999999994V-2.1559999999999997H58.785999999999994V0.0Z" fill="#0E1B2A"/><path transform="translate(0,0)" d="M14.136 0.0V-35.96H1.488V-43.4H34.967999999999996V-35.96H22.32V0.0ZM39.048 0.0V-43.4H57.896Q61.988 -43.4 65.026 -41.974000000000004Q68.064 -40.548 69.738 -37.944Q71.412 -35.339999999999996 71.412 -31.806V-31.062Q71.412 -27.156 69.552 -24.738Q67.69200000000001 -22.32 64.964 -21.204V-20.088Q67.444 -19.964 68.80799999999999 -18.383Q70.172 -16.802 70.172 -14.198V0.0H61.988V-13.02Q61.988 -14.508 61.213 -15.437999999999999Q60.438 -16.368 58.64 -16.368H47.232V0.0ZM47.232 -23.808H57.028000000000006Q59.94200000000001 -23.808 61.58500000000001 -25.389Q63.228 -26.97 63.228 -29.573999999999998V-30.194Q63.228 -32.798 61.616 -34.379000000000005Q60.004000000000005 -35.96 57.028000000000006 -35.96H47.232ZM73.756 0.0 85.164 -43.4H99.424L110.832 0.0H102.4L100.044 -9.548H84.544L82.188 0.0ZM86.46600000000001 -17.112H98.122L92.852 -38.254H91.736ZM113.30000000000001 0.0V-7.192H119.004V-36.208H113.30000000000001V-43.4H131.156Q139.898 -43.4 144.45499999999998 -38.967Q149.012 -34.534 149.012 -25.792V-17.608Q149.012 -8.866 144.45499999999998 -4.433Q139.898 0.0 131.156 0.0ZM127.188 -7.4399999999999995H131.28Q136.24 -7.4399999999999995 138.534 -10.044Q140.828 -12.648 140.828 -17.36V-26.04Q140.828 -30.814 138.534 -33.387Q136.24 -35.96 131.28 -35.96H127.188ZM154.33200000000002 0.0V-43.4H182.232V-35.96H162.51600000000002V-25.605999999999998H180.496V-18.166H162.51600000000002V-7.4399999999999995H182.604V0.0ZM202.24600000000004 0.868Q197.22400000000002 0.868 193.38000000000002 -0.9299999999999999Q189.53600000000003 -2.7279999999999998 187.36600000000004 -6.076Q185.19600000000003 -9.424 185.19600000000003 -14.136V-15.872H193.25600000000003V-14.136Q193.25600000000003 -10.23 195.67400000000004 -8.277000000000001Q198.092 -6.324 202.24600000000004 -6.324Q206.46200000000002 -6.324 208.53900000000002 -7.998Q210.616 -9.672 210.616 -12.276Q210.616 -14.074 209.59300000000002 -15.190000000000001Q208.57000000000002 -16.306 206.61700000000002 -17.019Q204.66400000000002 -17.732 201.87400000000002 -18.352L200.44800000000004 -18.662Q195.98400000000004 -19.654 192.79100000000003 -21.173000000000002Q189.598 -22.692 187.89300000000003 -25.172Q186.18800000000002 -27.652 186.18800000000002 -31.62Q186.18800000000002 -35.588 188.079 -38.409Q189.97000000000003 -41.23 193.41100000000003 -42.748999999999995Q196.85200000000003 -44.268 201.502 -44.268Q206.15200000000002 -44.268 209.77900000000002 -42.687Q213.40600000000003 -41.106 215.48300000000003 -37.975Q217.56000000000003 -34.844 217.56000000000003 -30.132V-28.272H209.50000000000003V-30.132Q209.50000000000003 -32.612 208.53900000000004 -34.131Q207.57800000000003 -35.65 205.78000000000003 -36.363Q203.98200000000003 -37.076 201.502 -37.076Q197.782 -37.076 196.01500000000001 -35.681Q194.24800000000002 -34.286 194.24800000000002 -31.868Q194.24800000000002 -30.256 195.08500000000004 -29.14Q195.92200000000003 -28.024 197.596 -27.28Q199.27 -26.536 201.87400000000002 -25.978L203.3 -25.668Q207.95000000000002 -24.676 211.39100000000002 -23.125999999999998Q214.83200000000002 -21.576 216.75400000000002 -19.034Q218.67600000000002 -16.492 218.67600000000002 -12.524Q218.67600000000002 -8.556 216.661 -5.5489999999999995Q214.64600000000002 -2.542 210.95700000000002 -0.837Q207.26800000000003 0.868 202.24600000000004 0.868Z" fill="#0E1B2A"/><path transform="translate(0,0)" d="M237.50000000000003 0.0V-43.4H245.68400000000003V-7.4399999999999995H265.524V0.0ZM266.628 0.0 278.036 -43.4H292.296L303.704 0.0H295.272L292.916 -9.548H277.416L275.06 0.0ZM279.338 -17.112H290.994L285.724 -38.254H284.608ZM306.17199999999997 0.0V-7.192H311.876V-36.208H306.17199999999997V-43.4H328.492Q332.46 -43.4 335.405 -42.067Q338.35 -40.734 339.993 -38.285Q341.63599999999997 -35.836 341.63599999999997 -32.426V-31.806Q341.63599999999997 -28.83 340.52 -26.939Q339.404 -25.048 337.885 -24.025Q336.366 -23.002 335.002 -22.568V-21.451999999999998Q336.366 -21.08 337.97799999999995 -20.057Q339.59 -19.034 340.73699999999997 -17.112Q341.884 -15.19 341.884 -12.09V-11.47Q341.884 -7.874 340.21000000000004 -5.301Q338.536 -2.7279999999999998 335.591 -1.3639999999999999Q332.646 0.0 328.74 0.0ZM320.06 -7.4399999999999995H327.748Q330.414 -7.4399999999999995 332.057 -8.742Q333.7 -10.044 333.7 -12.462V-13.082Q333.7 -15.5 332.08799999999997 -16.802Q330.476 -18.104 327.748 -18.104H320.06ZM320.06 -25.544H327.62399999999997Q330.166 -25.544 331.80899999999997 -26.846Q333.452 -28.148 333.452 -30.442V-31.062Q333.452 -33.418 331.84000000000003 -34.689Q330.228 -35.96 327.62399999999997 -35.96H320.06Z" fill="#C9A227"/></g></svg></g><text x="716.0" y="836" font-family="Inter" font-size="13" font-weight="600" letter-spacing="1" fill="#8A94A0" text-anchor="start">Stacked</text><rect x="72.0" y="864" width="292.0" height="170" rx="10" fill="#F7F4EF" stroke="#E3DDD1" stroke-width="1"/><g transform="translate(181.76470588235293,886.0) scale(0.8235294117647058)"><svg viewBox="0 0 88 153" width="88" height="153"><g transform="translate(-38,-12)"><rect x="48" y="22" width="64" height="8" rx="4" fill="#0E1B2A"/><rect x="76" y="30" width="8" height="40" rx="3" fill="#0E1B2A"/><circle cx="80" cy="71" r="5" fill="#C9A227"/><polygon points="66,74 94,74 97,93 63,93" fill="#C9A227"/><path d="M63 93 C 62 114, 72 136, 80 153 C 88 136, 98 114, 97 93 Z" fill="#0E1B2A"/><polygon points="74,146 86,146 80,157" fill="#C9A227"/></g></svg></g><text x="72.0" y="1060" font-family="Inter" font-size="13" font-weight="600" letter-spacing="1" fill="#8A94A0" text-anchor="start">Symbol</text><rect x="394.0" y="864" width="292.0" height="170" rx="10" fill="#0E1B2A"/><g transform="translate(503.7647058823529,886.0) scale(0.8235294117647058)"><svg viewBox="0 0 88 153" width="88" height="153"><g transform="translate(-38,-12)"><rect x="48" y="22" width="64" height="8" rx="4" fill="#F7F4EF"/><rect x="76" y="30" width="8" height="40" rx="3" fill="#F7F4EF"/><circle cx="80" cy="71" r="5" fill="#C9A227"/><polygon points="66,74 94,74 97,93 63,93" fill="#C9A227"/><path d="M63 93 C 62 114, 72 136, 80 153 C 88 136, 98 114, 97 93 Z" fill="#F7F4EF"/><polygon points="74,146 86,146 80,157" fill="#C9A227"/></g></svg></g><text x="394.0" y="1060" font-family="Inter" font-size="13" font-weight="600" letter-spacing="1" fill="#8A94A0" text-anchor="start">Symbol reversed</text><rect x="716.0" y="864" width="292.0" height="170" rx="10" fill="#F7F4EF" stroke="#E3DDD1" stroke-width="1"/><g transform="translate(825.7647058823529,886.0) scale(0.8235294117647058)"><svg viewBox="0 0 88 153" width="88" height="153"><g transform="translate(-38,-12)"><rect x="48" y="22" width="64" height="8" rx="4" fill="#0E1B2A"/><rect x="76" y="30" width="8" height="40" rx="3" fill="#0E1B2A"/><circle cx="80" cy="71" r="5" fill="#0E1B2A"/><polygon points="66,74 94,74 97,93 63,93" fill="#0E1B2A"/><path d="M63 93 C 62 114, 72 136, 80 153 C 88 136, 98 114, 97 93 Z" fill="#0E1B2A"/><polygon points="74,146 86,146 80,157" fill="#0E1B2A"/></g></svg></g><text x="716.0" y="1060" font-family="Inter" font-size="13" font-weight="600" letter-spacing="1" fill="#8A94A0" text-anchor="start">One-colour</text><text x="72" y="1110" font-family="Inter" font-size="13" font-weight="700" letter-spacing="3" fill="#C9A227" text-anchor="start">COLOUR</text><rect x="72" y="1124" width="936" height="1" rx="0" fill="#E3DDD1"/><rect x="72.0" y="1150" width="216.0" height="110" rx="12" fill="#0E1B2A"/><text x="72.0" y="1300" font-family="Inter" font-size="16" font-weight="700" letter-spacing="0" fill="#0E1B2A" text-anchor="start">Trade Navy</text><text x="72.0" y="1324" font-family="Inter" font-size="14" font-weight="500" letter-spacing="0" fill="#8A94A0" text-anchor="start">#0E1B2A</text><text x="72.0" y="1348" font-family="Inter" font-size="12.5" font-weight="400" letter-spacing="0" fill="#3A434E" text-anchor="start">Primary · backgrounds · text</text><rect x="312.0" y="1150" width="216.0" height="110" rx="12" fill="#C9A227"/><text x="312.0" y="1300" font-family="Inter" font-size="16" font-weight="700" letter-spacing="0" fill="#0E1B2A" text-anchor="start">Brass</text><text x="312.0" y="1324" font-family="Inter" font-size="14" font-weight="500" letter-spacing="0" fill="#8A94A0" text-anchor="start">#C9A227</text><text x="312.0" y="1348" font-family="Inter" font-size="12.5" font-weight="400" letter-spacing="0" fill="#3A434E" text-anchor="start">Accent · highlights · CTAs</text><rect x="552.0" y="1150" width="216.0" height="110" rx="12" fill="#0F766E"/><text x="552.0" y="1300" font-family="Inter" font-size="16" font-weight="700" letter-spacing="0" fill="#0E1B2A" text-anchor="start">Spirit Teal</text><text x="552.0" y="1324" font-family="Inter" font-size="14" font-weight="500" letter-spacing="0" fill="#8A94A0" text-anchor="start">#0F766E</text><text x="552.0" y="1348" font-family="Inter" font-size="12.5" font-weight="400" letter-spacing="0" fill="#3A434E" text-anchor="start">Secondary · links · detail</text><rect x="792.0" y="1150" width="216.0" height="110" rx="12" fill="#F7F4EF" stroke="#E3DDD1" stroke-width="1"/><text x="792.0" y="1300" font-family="Inter" font-size="16" font-weight="700" letter-spacing="0" fill="#0E1B2A" text-anchor="start">Chalk</text><text x="792.0" y="1324" font-family="Inter" font-size="14" font-weight="500" letter-spacing="0" fill="#8A94A0" text-anchor="start">#F7F4EF</text><text x="792.0" y="1348" font-family="Inter" font-size="12.5" font-weight="400" letter-spacing="0" fill="#3A434E" text-anchor="start">Light surfaces · reversed text</text><text x="72" y="1410" font-family="Inter" font-size="13" font-weight="700" letter-spacing="3" fill="#C9A227" text-anchor="start">TYPOGRAPHY</text><rect x="72" y="1424" width="936" height="1" rx="0" fill="#E3DDD1"/><path d="M78.798 1448.308Q77.016 1448.308 75.652 1447.67Q74.288 1447.032 73.518 1445.844Q72.748 1444.656 72.748 1442.984V1442.368H75.608V1442.984Q75.608 1444.37 76.46600000000001 1445.063Q77.324 1445.756 78.798 1445.756Q80.294 1445.756 81.031 1445.162Q81.768 1444.568 81.768 1443.644Q81.768 1443.006 81.405 1442.6100000000001Q81.042 1442.214 80.349 1441.961Q79.656 1441.708 78.666 1441.488L78.16 1441.378Q76.576 1441.026 75.443 1440.487Q74.31 1439.948 73.705 1439.0680000000002Q73.1 1438.188 73.1 1436.78Q73.1 1435.372 73.77099999999999 1434.371Q74.442 1433.37 75.663 1432.831Q76.884 1432.292 78.534 1432.292Q80.184 1432.292 81.471 1432.853Q82.758 1433.414 83.495 1434.525Q84.232 1435.636 84.232 1437.308V1437.968H81.372V1437.308Q81.372 1436.428 81.031 1435.8890000000001Q80.69 1435.35 80.05199999999999 1435.097Q79.414 1434.844 78.534 1434.844Q77.214 1434.844 76.58699999999999 1435.339Q75.96 1435.834 75.96 1436.692Q75.96 1437.264 76.257 1437.6599999999999Q76.554 1438.056 77.148 1438.3200000000002Q77.742 1438.584 78.666 1438.782L79.172 1438.892Q80.822 1439.244 82.043 1439.7939999999999Q83.264 1440.344 83.946 1441.246Q84.628 1442.148 84.628 1443.556Q84.628 1444.964 83.913 1446.031Q83.198 1447.098 81.889 1447.703Q80.58 1448.308 78.798 1448.308ZM86.872 1452.4V1437.088H89.6V1438.408H89.996Q90.36999999999999 1437.77 91.16199999999999 1437.275Q91.954 1436.78 93.428 1436.78Q94.74799999999999 1436.78 95.86999999999999 1437.429Q96.99199999999999 1438.078 97.67399999999999 1439.3319999999999Q98.356 1440.586 98.356 1442.368V1442.72Q98.356 1444.502 97.67399999999999 1445.7559999999999Q96.99199999999999 1447.01 95.86999999999999 1447.659Q94.74799999999999 1448.308 93.428 1448.308Q92.43799999999999 1448.308 91.767 1448.077Q91.09599999999999 1447.846 90.689 1447.483Q90.282 1447.12 90.03999999999999 1446.746H89.64399999999999V1452.4ZM92.592 1445.888Q93.88999999999999 1445.888 94.737 1445.063Q95.58399999999999 1444.238 95.58399999999999 1442.654V1442.434Q95.58399999999999 1440.85 94.726 1440.025Q93.868 1439.2 92.592 1439.2Q91.31599999999999 1439.2 90.458 1440.025Q89.6 1440.85 89.6 1442.434V1442.654Q89.6 1444.238 90.458 1445.063Q91.31599999999999 1445.888 92.592 1445.888ZM104.29599999999999 1448.308Q103.13 1448.308 102.20599999999999 1447.9009999999998Q101.282 1447.494 100.743 1446.713Q100.204 1445.932 100.204 1444.81Q100.204 1443.688 100.743 1442.929Q101.282 1442.17 102.239 1441.785Q103.196 1441.4 104.428 1441.4H107.41999999999999V1440.784Q107.41999999999999 1440.014 106.93599999999999 1439.5189999999998Q106.452 1439.024 105.396 1439.024Q104.362 1439.024 103.856 1439.4969999999998Q103.35 1439.97 103.196 1440.718L100.64399999999999 1439.86Q100.908 1439.024 101.491 1438.331Q102.074 1437.638 103.053 1437.2089999999998Q104.032 1436.78 105.44 1436.78Q107.59599999999999 1436.78 108.85 1437.858Q110.104 1438.936 110.104 1440.982V1445.052Q110.104 1445.712 110.72 1445.712H111.6V1448.0H109.752Q108.93799999999999 1448.0 108.41 1447.604Q107.88199999999999 1447.208 107.88199999999999 1446.548V1446.526H107.464Q107.37599999999999 1446.79 107.06799999999998 1447.219Q106.75999999999999 1447.648 106.1 1447.978Q105.44 1448.308 104.29599999999999 1448.308ZM104.78 1446.064Q105.946 1446.064 106.68299999999999 1445.415Q107.41999999999999 1444.766 107.41999999999999 1443.688V1443.468H104.62599999999999Q103.856 1443.468 103.416 1443.798Q102.976 1444.128 102.976 1444.722Q102.976 1445.316 103.43799999999999 1445.69Q103.89999999999999 1446.064 104.78 1446.064ZM118.74999999999999 1448.308Q117.16599999999998 1448.308 115.87899999999999 1447.6480000000001Q114.59199999999998 1446.988 113.844 1445.734Q113.09599999999999 1444.48 113.09599999999999 1442.698V1442.39Q113.09599999999999 1440.608 113.844 1439.3539999999998Q114.59199999999998 1438.1 115.87899999999999 1437.44Q117.16599999999998 1436.78 118.74999999999999 1436.78Q120.31199999999998 1436.78 121.43399999999998 1437.33Q122.55599999999998 1437.88 123.249 1438.837Q123.942 1439.794 124.16199999999999 1441.004L121.478 1441.576Q121.38999999999999 1440.916 121.082 1440.388Q120.77399999999999 1439.86 120.213 1439.552Q119.65199999999999 1439.244 118.81599999999999 1439.244Q117.97999999999999 1439.244 117.309 1439.607Q116.63799999999999 1439.97 116.25299999999999 1440.685Q115.868 1441.4 115.868 1442.434V1442.654Q115.868 1443.688 116.25299999999999 1444.403Q116.63799999999999 1445.118 117.309 1445.481Q117.97999999999999 1445.844 118.81599999999999 1445.844Q120.07 1445.844 120.719 1445.1950000000002Q121.368 1444.546 121.54399999999998 1443.49L124.228 1444.128Q123.942 1445.294 123.249 1446.2510000000002Q122.55599999999998 1447.208 121.43399999999998 1447.758Q120.31199999999998 1448.308 118.74999999999999 1448.308ZM131.48799999999997 1448.308Q129.85999999999999 1448.308 128.617 1447.615Q127.37399999999998 1446.922 126.68099999999998 1445.6570000000002Q125.98799999999999 1444.392 125.98799999999999 1442.676V1442.412Q125.98799999999999 1440.696 126.66999999999999 1439.431Q127.35199999999999 1438.166 128.58399999999997 1437.473Q129.81599999999997 1436.78 131.444 1436.78Q133.04999999999998 1436.78 134.238 1437.495Q135.426 1438.21 136.08599999999998 1439.475Q136.74599999999998 1440.74 136.74599999999998 1442.412V1443.358H128.80399999999997Q128.84799999999998 1444.48 129.64 1445.184Q130.432 1445.888 131.576 1445.888Q132.742 1445.888 133.29199999999997 1445.382Q133.84199999999998 1444.876 134.128 1444.26L136.39399999999998 1445.448Q136.08599999999998 1446.02 135.503 1446.691Q134.92 1447.362 133.952 1447.835Q132.98399999999998 1448.308 131.48799999999997 1448.308ZM128.826 1441.29H133.92999999999998Q133.84199999999998 1440.344 133.171 1439.772Q132.49999999999997 1439.2 131.422 1439.2Q130.29999999999998 1439.2 129.64 1439.772Q128.98 1440.344 128.826 1441.29ZM150.034 1448.308Q148.45 1448.308 147.16299999999998 1447.5929999999998Q145.87599999999998 1446.878 145.11699999999996 1445.503Q144.35799999999998 1444.128 144.35799999999998 1442.148V1438.452Q144.35799999999998 1435.482 146.02999999999997 1433.887Q147.70199999999997 1432.292 150.56199999999998 1432.292Q153.39999999999998 1432.292 154.95099999999996 1433.799Q156.50199999999998 1435.306 156.50199999999998 1437.88V1437.968H153.64199999999997V1437.792Q153.64199999999997 1436.978 153.301 1436.318Q152.95999999999998 1435.658 152.27799999999996 1435.273Q151.59599999999998 1434.888 150.56199999999998 1434.888Q149.022 1434.888 148.142 1435.8339999999998Q147.26199999999997 1436.78 147.26199999999997 1438.408V1442.192Q147.26199999999997 1443.798 148.142 1444.777Q149.022 1445.756 150.606 1445.756Q152.18999999999997 1445.756 152.91599999999997 1444.92Q153.64199999999997 1444.084 153.64199999999997 1442.808V1442.588H149.98999999999998V1440.124H156.50199999999998V1448.0H153.81799999999998V1446.526H153.42199999999997Q153.26799999999997 1446.9 152.92699999999996 1447.3180000000002Q152.58599999999998 1447.736 151.904 1448.022Q151.22199999999998 1448.308 150.034 1448.308ZM159.36199999999997 1448.0V1437.088H162.08999999999997V1438.32H162.48599999999996Q162.72799999999998 1437.66 163.289 1437.352Q163.84999999999997 1437.044 164.59799999999998 1437.044H165.91799999999998V1439.508H164.55399999999997Q163.49799999999996 1439.508 162.81599999999997 1440.069Q162.134 1440.63 162.134 1441.796V1448.0ZM173.26599999999996 1448.308Q171.63799999999998 1448.308 170.33999999999997 1447.6480000000001Q169.04199999999997 1446.988 168.29399999999998 1445.734Q167.54599999999996 1444.48 167.54599999999996 1442.72V1442.368Q167.54599999999996 1440.608 168.29399999999998 1439.3539999999998Q169.04199999999997 1438.1 170.33999999999997 1437.44Q171.63799999999998 1436.78 173.26599999999996 1436.78Q174.89399999999995 1436.78 176.19199999999995 1437.44Q177.48999999999995 1438.1 178.23799999999994 1439.3539999999998Q178.98599999999996 1440.608 178.98599999999996 1442.368V1442.72Q178.98599999999996 1444.48 178.23799999999994 1445.734Q177.48999999999995 1446.988 176.19199999999995 1447.6480000000001Q174.89399999999995 1448.308 173.26599999999996 1448.308ZM173.26599999999996 1445.844Q174.54199999999997 1445.844 175.378 1445.019Q176.21399999999997 1444.194 176.21399999999997 1442.654V1442.434Q176.21399999999997 1440.894 175.38899999999995 1440.069Q174.56399999999996 1439.244 173.26599999999996 1439.244Q171.98999999999995 1439.244 171.15399999999994 1440.069Q170.31799999999996 1440.894 170.31799999999996 1442.434V1442.654Q170.31799999999996 1444.194 171.15399999999994 1445.019Q171.98999999999995 1445.844 173.26599999999996 1445.844ZM185.71799999999996 1448.0Q184.63999999999996 1448.0 183.96899999999997 1447.329Q183.29799999999997 1446.658 183.29799999999997 1445.536V1439.376H180.56999999999996V1437.088H183.29799999999997V1433.7H186.06999999999996V1437.088H189.06199999999995V1439.376H186.06999999999996V1445.052Q186.06999999999996 1445.712 186.68599999999995 1445.712H188.79799999999997V1448.0ZM196.54199999999997 1448.308Q194.91399999999996 1448.308 193.67099999999996 1447.615Q192.42799999999997 1446.922 191.73499999999996 1445.6570000000002Q191.04199999999997 1444.392 191.04199999999997 1442.676V1442.412Q191.04199999999997 1440.696 191.724 1439.431Q192.40599999999998 1438.166 193.63799999999998 1437.473Q194.86999999999998 1436.78 196.49799999999996 1436.78Q198.10399999999998 1436.78 199.29199999999997 1437.495Q200.47999999999996 1438.21 201.14 1439.475Q201.79999999999998 1440.74 201.79999999999998 1442.412V1443.358H193.85799999999998Q193.902 1444.48 194.69399999999996 1445.184Q195.48599999999996 1445.888 196.62999999999997 1445.888Q197.79599999999996 1445.888 198.34599999999995 1445.382Q198.89599999999996 1444.876 199.18199999999996 1444.26L201.44799999999998 1445.448Q201.14 1446.02 200.55699999999996 1446.691Q199.97399999999996 1447.362 199.00599999999997 1447.835Q198.03799999999998 1448.308 196.54199999999997 1448.308ZM193.87999999999997 1441.29H198.98399999999998Q198.89599999999996 1440.344 198.22499999999997 1439.772Q197.55399999999997 1439.2 196.47599999999997 1439.2Q195.35399999999998 1439.2 194.69399999999996 1439.772Q194.03399999999996 1440.344 193.87999999999997 1441.29ZM208.79599999999996 1448.308Q206.66199999999995 1448.308 205.29799999999994 1447.384Q203.93399999999997 1446.46 203.64799999999997 1444.744L206.19999999999996 1444.084Q206.35399999999996 1444.854 206.71699999999996 1445.2939999999999Q207.07999999999996 1445.734 207.61899999999997 1445.9209999999998Q208.15799999999996 1446.108 208.79599999999996 1446.108Q209.76399999999995 1446.108 210.22599999999994 1445.7669999999998Q210.68799999999996 1445.426 210.68799999999996 1444.92Q210.68799999999996 1444.414 210.24799999999996 1444.1390000000001Q209.80799999999996 1443.864 208.83999999999997 1443.688L208.22399999999996 1443.578Q207.07999999999996 1443.358 206.13399999999996 1442.973Q205.18799999999996 1442.588 204.61599999999996 1441.906Q204.04399999999995 1441.224 204.04399999999995 1440.146Q204.04399999999995 1438.518 205.23199999999997 1437.649Q206.41999999999996 1436.78 208.35599999999997 1436.78Q210.18199999999996 1436.78 211.39199999999997 1437.594Q212.60199999999998 1438.408 212.97599999999997 1439.728L210.40199999999996 1440.52Q210.22599999999997 1439.684 209.68699999999995 1439.3319999999999Q209.14799999999997 1438.98 208.35599999999997 1438.98Q207.56399999999996 1438.98 207.14599999999996 1439.255Q206.72799999999995 1439.53 206.72799999999995 1440.014Q206.72799999999995 1440.542 207.16799999999995 1440.795Q207.60799999999995 1441.048 208.35599999999997 1441.18L208.97199999999995 1441.29Q210.20399999999995 1441.51 211.20499999999996 1441.873Q212.20599999999996 1442.236 212.78899999999996 1442.9070000000002Q213.37199999999996 1443.578 213.37199999999996 1444.722Q213.37199999999996 1446.438 212.12899999999996 1447.373Q210.88599999999997 1448.308 208.79599999999996 1448.308ZM215.79199999999994 1448.0V1432.6H218.56399999999996V1441.114H218.95999999999995L222.56799999999996 1437.088H226.17599999999996L221.13799999999995 1442.368L226.35199999999995 1448.0H222.78799999999995L218.95999999999995 1443.666H218.56399999999996V1448.0Z" fill="#0E1B2A"/><path d="M73.044 1526.0 83.71600000000001 1485.4H97.056L107.72800000000001 1526.0H99.84L97.636 1517.068H83.136L80.932 1526.0ZM84.934 1509.992H95.838L90.908 1490.214H89.864ZM121.764 1526.812Q118.69 1526.812 116.25399999999999 1525.739Q113.818 1524.666 112.39699999999999 1522.607Q110.97599999999998 1520.548 110.97599999999998 1517.59Q110.97599999999998 1514.632 112.39699999999999 1512.631Q113.818 1510.63 116.341 1509.615Q118.86399999999999 1508.6 122.112 1508.6H130.0V1506.976Q130.0 1504.946 128.724 1503.641Q127.448 1502.336 124.66399999999999 1502.336Q121.93799999999999 1502.336 120.60399999999998 1503.583Q119.27 1504.83 118.86399999999999 1506.802L112.136 1504.54Q112.832 1502.336 114.369 1500.509Q115.90599999999999 1498.682 118.487 1497.551Q121.068 1496.42 124.77999999999999 1496.42Q130.464 1496.42 133.76999999999998 1499.2620000000002Q137.076 1502.104 137.076 1507.498V1518.228Q137.076 1519.968 138.7 1519.968H141.01999999999998V1526.0H136.148Q134.00199999999998 1526.0 132.60999999999999 1524.9560000000001Q131.218 1523.912 131.218 1522.172V1522.114H130.11599999999999Q129.884 1522.81 129.072 1523.9409999999998Q128.26 1525.072 126.51999999999998 1525.942Q124.77999999999999 1526.812 121.764 1526.812ZM123.03999999999999 1520.896Q126.11399999999999 1520.896 128.057 1519.185Q130.0 1517.474 130.0 1514.632V1514.052H122.63399999999999Q120.60399999999998 1514.052 119.44399999999999 1514.922Q118.28399999999999 1515.792 118.28399999999999 1517.358Q118.28399999999999 1518.924 119.502 1519.9099999999999Q120.72 1520.896 123.03999999999999 1520.896ZM144.964 1526.0V1519.272H150.29999999999998V1492.128H144.964V1485.4H165.844Q169.55599999999998 1485.4 172.31099999999998 1486.647Q175.066 1487.894 176.603 1490.185Q178.14 1492.476 178.14 1495.666V1496.246Q178.14 1499.03 177.096 1500.799Q176.052 1502.568 174.63099999999997 1503.525Q173.20999999999998 1504.482 171.934 1504.888V1505.932Q173.20999999999998 1506.28 174.718 1507.237Q176.226 1508.194 177.29899999999998 1509.992Q178.37199999999999 1511.79 178.37199999999999 1514.69V1515.27Q178.37199999999999 1518.634 176.80599999999998 1521.0410000000002Q175.24 1523.448 172.485 1524.7240000000002Q169.73 1526.0 166.076 1526.0ZM157.956 1519.04H165.148Q167.642 1519.04 169.179 1517.8220000000001Q170.716 1516.604 170.716 1514.342V1513.762Q170.716 1511.5 169.208 1510.2820000000002Q167.7 1509.064 165.148 1509.064H157.956ZM157.956 1502.104H165.03199999999998Q167.41 1502.104 168.947 1500.886Q170.48399999999998 1499.668 170.48399999999998 1497.522V1496.942Q170.48399999999998 1494.738 168.976 1493.549Q167.468 1492.36 165.03199999999998 1492.36H157.956ZM202.152 1526.812Q198.266 1526.812 196.178 1525.478Q194.09 1524.144 193.10399999999998 1522.52H192.06V1526.0H184.868V1485.4H192.176V1500.538H193.22Q193.858 1499.494 194.93099999999998 1498.5659999999998Q196.004 1497.638 197.773 1497.029Q199.542 1496.42 202.152 1496.42Q205.632 1496.42 208.59 1498.131Q211.548 1499.842 213.346 1503.1480000000001Q215.144 1506.454 215.144 1511.152V1512.08Q215.144 1516.778 213.346 1520.084Q211.548 1523.39 208.59 1525.101Q205.632 1526.812 202.152 1526.812ZM199.94799999999998 1520.432Q203.31199999999998 1520.432 205.57399999999998 1518.257Q207.83599999999998 1516.082 207.83599999999998 1511.906V1511.326Q207.83599999999998 1507.15 205.603 1504.975Q203.37 1502.8 199.94799999999998 1502.8Q196.584 1502.8 194.322 1504.975Q192.06 1507.15 192.06 1511.326V1511.906Q192.06 1516.082 194.322 1518.257Q196.584 1520.432 199.94799999999998 1520.432ZM237.068 1526.812Q229.52800000000002 1526.812 225.12 1522.607Q220.71200000000002 1518.402 220.71200000000002 1510.572V1500.828Q220.71200000000002 1492.998 225.12 1488.7930000000001Q229.52800000000002 1484.588 237.068 1484.588Q244.55 1484.588 248.639 1488.6770000000001Q252.728 1492.766 252.728 1499.9V1500.248H245.18800000000002V1499.668Q245.18800000000002 1496.072 243.187 1493.752Q241.186 1491.432 237.068 1491.432Q233.008 1491.432 230.68800000000002 1493.926Q228.36800000000002 1496.42 228.36800000000002 1500.712V1510.688Q228.36800000000002 1514.922 230.68800000000002 1517.4450000000002Q233.008 1519.968 237.068 1519.968Q241.186 1519.968 243.187 1517.6190000000001Q245.18800000000002 1515.27 245.18800000000002 1511.732V1510.688H252.728V1511.5Q252.728 1518.634 248.639 1522.723Q244.55 1526.812 237.068 1526.812ZM272.738 1526.812Q268.562 1526.812 265.169 1525.0720000000001Q261.776 1523.332 259.804 1520.026Q257.832 1516.72 257.832 1512.022V1511.21Q257.832 1506.512 259.804 1503.2060000000001Q261.776 1499.9 265.169 1498.16Q268.562 1496.42 272.738 1496.42Q276.856 1496.42 279.81399999999996 1497.87Q282.772 1499.32 284.59900000000005 1501.8429999999998Q286.42600000000004 1504.366 287.00600000000003 1507.556L279.93 1509.064Q279.69800000000004 1507.324 278.886 1505.932Q278.074 1504.54 276.595 1503.728Q275.11600000000004 1502.916 272.91200000000003 1502.916Q270.708 1502.916 268.939 1503.873Q267.17 1504.83 266.15500000000003 1506.715Q265.14000000000004 1508.6 265.14000000000004 1511.326V1511.906Q265.14000000000004 1514.632 266.15500000000003 1516.517Q267.17 1518.402 268.939 1519.359Q270.708 1520.316 272.91200000000003 1520.316Q276.218 1520.316 277.92900000000003 1518.605Q279.64000000000004 1516.894 280.10400000000004 1514.11L287.18 1515.792Q286.42600000000004 1518.866 284.59900000000005 1521.3890000000001Q282.772 1523.912 279.81399999999996 1525.362Q276.856 1526.812 272.738 1526.812ZM307.016 1526.812Q302.84000000000003 1526.812 299.447 1524.927Q296.05400000000003 1523.042 294.053 1519.417Q292.052 1515.792 292.052 1510.572V1500.828Q292.052 1492.998 296.46000000000004 1488.7930000000001Q300.86800000000005 1484.588 308.408 1484.588Q315.89000000000004 1484.588 319.97900000000004 1488.5610000000001Q324.06800000000004 1492.534 324.06800000000004 1499.32V1499.552H316.528V1499.088Q316.528 1496.942 315.629 1495.202Q314.73 1493.462 312.932 1492.4470000000001Q311.13400000000007 1491.432 308.408 1491.432Q304.34800000000007 1491.432 302.028 1493.926Q299.708 1496.42 299.708 1500.712V1510.688Q299.708 1514.922 302.028 1517.5030000000002Q304.34800000000007 1520.084 308.52400000000006 1520.084Q312.70000000000005 1520.084 314.61400000000003 1517.88Q316.528 1515.676 316.528 1512.312V1511.732H306.90000000000003V1505.236H324.06800000000004V1526.0H316.992V1522.114H315.94800000000004Q315.54200000000003 1523.1 314.64300000000003 1524.202Q313.744 1525.304 311.946 1526.058Q310.148 1526.812 307.016 1526.812ZM330.21600000000007 1511.732V1510.804Q330.21600000000007 1506.28 332.01400000000007 1503.0610000000001Q333.81200000000007 1499.842 336.7990000000001 1498.131Q339.78600000000006 1496.42 343.32400000000007 1496.42Q347.2680000000001 1496.42 349.2980000000001 1497.812Q351.3280000000001 1499.204 352.2560000000001 1500.712H353.30000000000007V1497.232H360.4920000000001V1531.104Q360.4920000000001 1534.062 358.75200000000007 1535.831Q357.01200000000006 1537.6 354.1120000000001 1537.6H334.85600000000005V1531.22H351.56000000000006Q353.1840000000001 1531.22 353.1840000000001 1529.48V1521.998H352.14000000000004Q351.56000000000006 1522.926 350.5160000000001 1523.8829999999998Q349.47200000000004 1524.84 347.7320000000001 1525.478Q345.9920000000001 1526.116 343.32400000000007 1526.116Q339.78600000000006 1526.116 336.7990000000001 1524.405Q333.81200000000007 1522.694 332.01400000000007 1519.475Q330.21600000000007 1516.256 330.21600000000007 1511.732ZM345.41200000000003 1519.736Q348.77600000000007 1519.736 351.03800000000007 1517.5900000000001Q353.30000000000007 1515.444 353.30000000000007 1511.558V1510.978Q353.30000000000007 1507.034 351.06700000000006 1504.917Q348.83400000000006 1502.8 345.41200000000003 1502.8Q342.04800000000006 1502.8 339.78600000000006 1504.917Q337.52400000000006 1507.034 337.52400000000006 1510.978V1511.558Q337.52400000000006 1515.444 339.78600000000006 1517.5900000000001Q342.04800000000006 1519.736 345.41200000000003 1519.736Z" fill="#0E1B2A"/><path d="M81.016 1564.392Q77.6 1564.392 75.57 1562.446Q73.54 1560.5 73.54 1556.58V1551.82Q73.54 1547.984 75.57 1545.996Q77.6 1544.008 81.016 1544.008Q84.46000000000001 1544.008 86.49000000000001 1545.996Q88.52 1547.984 88.52 1551.82V1556.58Q88.52 1560.5 86.49000000000001 1562.446Q84.46000000000001 1564.392 81.016 1564.392ZM81.016 1561.76Q83.34 1561.76 84.46000000000001 1560.4299999999998Q85.58 1559.1 85.58 1556.692V1551.652Q85.58 1549.244 84.376 1547.942Q83.172 1546.64 81.016 1546.64Q78.832 1546.64 77.656 1547.97Q76.48 1549.3 76.48 1551.652V1556.692Q76.48 1559.156 77.614 1560.458Q78.748 1561.76 81.016 1561.76ZM97.256 1564.0V1546.472H96.808L93.58800000000001 1553.08H90.48L94.82000000000001 1544.4H100.196V1564.0ZM103.584 1564.0V1561.788Q103.584 1559.744 104.284 1558.4279999999999Q104.98400000000001 1557.112 106.286 1556.286Q107.58800000000001 1555.46 109.436 1554.9L111.144 1554.368Q112.292 1554.004 113.11800000000001 1553.472Q113.94400000000002 1552.94 114.39200000000001 1552.142Q114.84 1551.344 114.84 1550.28V1550.168Q114.84 1548.516 113.72 1547.578Q112.60000000000001 1546.64 110.78000000000002 1546.64Q108.90400000000001 1546.64 107.74200000000002 1547.6480000000001Q106.58000000000001 1548.656 106.58000000000001 1550.616V1551.064H103.668V1550.644Q103.668 1548.516 104.59200000000001 1547.046Q105.516 1545.576 107.14000000000001 1544.792Q108.76400000000001 1544.008 110.78000000000002 1544.008Q112.796 1544.008 114.37800000000001 1544.7640000000001Q115.96000000000001 1545.52 116.87 1546.8919999999998Q117.78000000000002 1548.264 117.78000000000002 1550.112V1550.364Q117.78000000000002 1552.268 117.02400000000002 1553.528Q116.26800000000001 1554.788 114.93800000000002 1555.6Q113.608 1556.412 111.87200000000001 1556.972L110.22000000000001 1557.476Q108.90400000000001 1557.868 108.10600000000001 1558.33Q107.308 1558.792 106.93 1559.436Q106.552 1560.08 106.552 1561.088V1561.368H117.61200000000001V1564.0ZM127.49600000000001 1564.392Q125.34 1564.392 123.66 1563.6080000000002Q121.98 1562.824 121.042 1561.3400000000001Q120.10400000000001 1559.856 120.10400000000001 1557.812V1557.308H123.04400000000001V1557.756Q123.04400000000001 1559.604 124.262 1560.682Q125.48 1561.76 127.49600000000001 1561.76Q129.512 1561.76 130.632 1560.752Q131.752 1559.744 131.752 1558.204V1557.952Q131.752 1556.86 131.22000000000003 1556.188Q130.68800000000002 1555.516 129.79200000000003 1555.194Q128.89600000000002 1554.872 127.77600000000001 1554.872H124.22000000000001V1551.484L131.108 1547.424V1547.032H120.58000000000001V1544.4H134.3V1548.376L127.72000000000001 1552.296V1552.688H128.924Q130.40800000000002 1552.688 131.72400000000002 1553.248Q133.04000000000002 1553.808 133.866 1554.9560000000001Q134.692 1556.104 134.692 1557.868V1558.204Q134.692 1560.08 133.796 1561.466Q132.9 1562.852 131.276 1563.622Q129.65200000000002 1564.392 127.49600000000001 1564.392ZM146.676 1564.0V1559.996H136.764V1556.58L144.268 1544.4H149.61599999999999V1557.392H152.92V1559.996H149.61599999999999V1564.0ZM139.62 1557.392H146.676V1546.248H146.228L139.62 1557.0ZM162.04799999999997 1564.392Q159.83599999999998 1564.392 158.212 1563.58Q156.588 1562.768 155.706 1561.284Q154.82399999999998 1559.8 154.82399999999998 1557.84V1557.532H157.82V1557.812Q157.82 1559.604 158.926 1560.682Q160.03199999999998 1561.76 162.01999999999998 1561.76Q164.064 1561.76 165.18399999999997 1560.6399999999999Q166.30399999999997 1559.52 166.30399999999997 1557.616V1557.364Q166.30399999999997 1555.544 165.19799999999998 1554.452Q164.09199999999998 1553.36 162.384 1553.36Q161.432 1553.36 160.802 1553.654Q160.172 1553.948 159.79399999999998 1554.368Q159.416 1554.788 159.164 1555.18H155.44V1544.4H168.57199999999997V1547.06H158.38V1552.828H158.82799999999997Q159.10799999999998 1552.352 159.62599999999998 1551.9180000000001Q160.14399999999998 1551.484 160.98399999999998 1551.204Q161.82399999999998 1550.924 162.99999999999997 1550.924Q164.736 1550.924 166.14999999999998 1551.666Q167.564 1552.408 168.404 1553.85Q169.24399999999997 1555.292 169.24399999999997 1557.336V1557.644Q169.24399999999997 1559.688 168.37599999999998 1561.2Q167.50799999999998 1562.712 165.89799999999997 1563.5520000000001Q164.28799999999998 1564.392 162.04799999999997 1564.392ZM179.07199999999997 1564.392Q176.944 1564.392 175.32 1563.566Q173.69599999999997 1562.74 172.79999999999995 1561.2559999999999Q171.90399999999997 1559.772 171.90399999999997 1557.812V1551.036Q171.90399999999997 1548.74 172.81399999999996 1547.172Q173.724 1545.604 175.37599999999998 1544.806Q177.02799999999996 1544.008 179.212 1544.008Q181.36799999999997 1544.008 182.93599999999998 1544.75Q184.50399999999996 1545.492 185.34399999999997 1546.85Q186.18399999999997 1548.208 186.18399999999997 1550.028H183.21599999999998Q183.21599999999998 1548.572 182.24999999999997 1547.606Q181.28399999999996 1546.64 179.212 1546.64Q177.11199999999997 1546.64 175.97799999999995 1547.746Q174.84399999999997 1548.852 174.84399999999997 1550.812V1553.164H175.29199999999997Q175.76799999999997 1552.492 176.84599999999998 1551.876Q177.92399999999998 1551.26 179.91199999999998 1551.26Q181.64799999999997 1551.26 183.10399999999998 1552.016Q184.55999999999997 1552.772 185.44199999999998 1554.172Q186.32399999999998 1555.572 186.32399999999998 1557.56V1557.896Q186.32399999999998 1559.828 185.39999999999998 1561.298Q184.47599999999997 1562.768 182.83799999999997 1563.58Q181.2 1564.392 179.07199999999997 1564.392ZM179.09999999999997 1561.76Q181.05999999999997 1561.76 182.22199999999998 1560.696Q183.384 1559.632 183.384 1557.84V1557.616Q183.384 1556.412 182.85199999999998 1555.53Q182.31999999999996 1554.648 181.35399999999998 1554.144Q180.38799999999998 1553.64 179.09999999999997 1553.64Q177.83999999999997 1553.64 176.87399999999997 1554.144Q175.908 1554.648 175.37599999999998 1555.53Q174.84399999999997 1556.412 174.84399999999997 1557.616V1557.84Q174.84399999999997 1559.632 176.00599999999997 1560.696Q177.16799999999998 1561.76 179.09999999999997 1561.76ZM191.53199999999998 1564.0V1563.3Q191.53199999999998 1562.236 191.7 1561.522Q191.86799999999997 1560.808 192.39999999999998 1559.856L199.39999999999998 1547.396V1547.032H188.396V1544.4H202.45199999999997V1547.872L195.08799999999997 1561.088Q194.75199999999998 1561.704 194.61199999999997 1562.194Q194.47199999999998 1562.684 194.47199999999998 1563.412V1564.0ZM211.804 1564.392Q209.536 1564.392 207.84199999999998 1563.72Q206.148 1563.048 205.20999999999998 1561.774Q204.272 1560.5 204.272 1558.792V1558.484Q204.272 1557.084 204.81799999999998 1556.174Q205.36399999999998 1555.264 206.16199999999998 1554.746Q206.95999999999998 1554.228 207.66 1554.06V1553.612Q206.95999999999998 1553.416 206.23199999999997 1552.8980000000001Q205.504 1552.38 205.04199999999997 1551.526Q204.57999999999998 1550.672 204.57999999999998 1549.468V1549.16Q204.57999999999998 1547.592 205.48999999999998 1546.444Q206.39999999999998 1545.296 208.024 1544.652Q209.648 1544.008 211.804 1544.008Q213.932 1544.008 215.55599999999998 1544.652Q217.17999999999998 1545.296 218.08999999999997 1546.444Q219.0 1547.592 219.0 1549.16V1549.468Q219.0 1550.672 218.538 1551.526Q218.076 1552.38 217.37599999999998 1552.8980000000001Q216.676 1553.416 215.94799999999998 1553.612V1554.06Q216.676 1554.228 217.45999999999998 1554.746Q218.244 1555.264 218.776 1556.174Q219.308 1557.084 219.308 1558.484V1558.792Q219.308 1560.5 218.37 1561.774Q217.432 1563.048 215.738 1563.72Q214.04399999999998 1564.392 211.804 1564.392ZM211.804 1561.76Q213.932 1561.76 215.14999999999998 1560.934Q216.368 1560.108 216.368 1558.624V1558.4Q216.368 1556.888 215.178 1556.062Q213.988 1555.236 211.804 1555.236Q209.62 1555.236 208.416 1556.062Q207.212 1556.888 207.212 1558.4V1558.624Q207.212 1560.108 208.43 1560.934Q209.648 1561.76 211.804 1561.76ZM211.804 1552.604Q213.792 1552.604 214.926 1551.848Q216.06 1551.092 216.06 1549.72V1549.496Q216.06 1548.124 214.91199999999998 1547.382Q213.76399999999998 1546.64 211.804 1546.64Q209.816 1546.64 208.668 1547.382Q207.51999999999998 1548.124 207.51999999999998 1549.496V1549.72Q207.51999999999998 1551.092 208.654 1551.848Q209.78799999999998 1552.604 211.804 1552.604ZM228.744 1564.392Q226.56 1564.392 224.99200000000002 1563.65Q223.424 1562.908 222.584 1561.55Q221.744 1560.192 221.744 1558.372H224.73999999999998Q224.73999999999998 1559.828 225.706 1560.7939999999999Q226.672 1561.76 228.744 1561.76Q230.844 1561.76 231.964 1560.6399999999999Q233.084 1559.52 233.084 1557.588V1555.236H232.636Q232.16 1555.908 231.096 1556.524Q230.03199999999998 1557.14 228.016 1557.14Q226.308 1557.14 224.85199999999998 1556.384Q223.396 1555.628 222.514 1554.214Q221.632 1552.8 221.632 1550.84V1550.504Q221.632 1548.544 222.542 1547.0880000000002Q223.452 1545.632 225.09 1544.8200000000002Q226.728 1544.008 228.856 1544.008Q231.012 1544.008 232.622 1544.834Q234.232 1545.66 235.128 1547.13Q236.024 1548.6 236.024 1550.588V1557.364Q236.024 1559.66 235.114 1561.228Q234.204 1562.796 232.566 1563.594Q230.928 1564.392 228.744 1564.392ZM228.828 1554.76Q230.11599999999999 1554.76 231.06799999999998 1554.2559999999999Q232.01999999999998 1553.752 232.552 1552.87Q233.084 1551.988 233.084 1550.784V1550.56Q233.084 1548.74 231.922 1547.69Q230.76 1546.64 228.828 1546.64Q226.896 1546.64 225.73399999999998 1547.69Q224.572 1548.74 224.572 1550.56V1550.784Q224.572 1551.988 225.09 1552.87Q225.608 1553.752 226.574 1554.2559999999999Q227.54 1554.76 228.828 1554.76Z" fill="#3A434E"/><text x="72" y="1598" font-family="Inter" font-size="15" font-weight="400" letter-spacing="0" fill="#3A434E" text-anchor="start">Display · headlines · the logotype</text><text x="556.0" y="1448" font-family="Inter" font-size="22" font-weight="700" letter-spacing="0" fill="#0E1B2A" text-anchor="start">Inter</text><text x="556.0" y="1526" font-family="Inter" font-size="58" font-weight="700" letter-spacing="0" fill="#0E1B2A" text-anchor="start">AaBbCcGg</text><text x="556.0" y="1564" font-family="Inter" font-size="28" font-weight="400" letter-spacing="0" fill="#3A434E" text-anchor="start">0123456789</text><text x="556.0" y="1598" font-family="Inter" font-size="15" font-weight="400" letter-spacing="0" fill="#3A434E" text-anchor="start">Body · UI · long-form copy</text><rect x="0" y="1650" width="1080" height="70" rx="0" fill="#0E1B2A"/><text x="72" y="1692" font-family="Inter" font-size="13" font-weight="700" letter-spacing="2" fill="#F7F4EF" text-anchor="start">THE TRADES LAB</text><text x="1008" y="1692" font-family="Inter" font-size="13" font-weight="400" letter-spacing="0.5" fill="#8A94A0" text-anchor="end">Cinematic websites, engineered for trades.</text></svg>